<?xml version="1.0" encoding="UTF-8" standalone="no"?>
<!DOCTYPE svg PUBLIC "-//W3C//DTD SVG 1.1//EN" "http://www.w3.org/Graphics/SVG/1.1/DTD/svg11.dtd">
<svg width="9px" height="9px" version="1.1" xmlns="http://www.w3.org/2000/svg" xmlns:xlink="http://www.w3.org/1999/xlink" xml:space="preserve" xmlns:serif="http://www.serif.com/" style="fill-rule:evenodd;clip-rule:evenodd;stroke-linejoin:round;stroke-miterlimit:2;">
    <g>
        <path d="M9,3c0,-0.552 -0.448,-1 -1,-1l-5,0c-0.552,0 -1,0.448 -1,1l0,5c0,0.552 0.448,1 1,1l5,0c0.552,0 1,-0.448 1,-1l0,-5Z" style="fill-opacity:0.5;"/>
        <path d="M8,2c0,-0.552 -0.448,-1 -1,-1l-5,0c-0.552,0 -1,0.448 -1,1l0,5c0,0.552 0.448,1 1,1l5,0c0.552,0 1,-0.448 1,-1l0,-5Z" style="fill:#fff;"/>
    </g>
</svg>
