<?xml version="1.0" encoding="UTF-8" standalone="no"?>
<!DOCTYPE svg PUBLIC "-//W3C//DTD SVG 1.1//EN" "http://www.w3.org/Graphics/SVG/1.1/DTD/svg11.dtd">
<svg width="100%" height="100%" viewBox="0 0 17 17" version="1.1" xmlns="http://www.w3.org/2000/svg" xmlns:xlink="http://www.w3.org/1999/xlink" xml:space="preserve" xmlns:serif="http://www.serif.com/" style="fill-rule:evenodd;clip-rule:evenodd;stroke-linejoin:round;stroke-miterlimit:2;">
    <path id="path5" d="M16,12.033C16,12.555 15.793,13.055 15.424,13.424C15.054,13.792 14.555,14 14.032,14L6,14L6,16L1,12L12.968,12C13.538,12 14,11.538 14,10.969L14,9.999C14,9.447 14.447,9 14.999,9L15.001,9C15.553,9 16,9.447 16,9.999L16,12.033ZM1,4.976C1,4.453 1.208,3.95 1.579,3.579C1.95,3.208 2.453,3 2.976,3L11,3L11,1L16,5L3.994,5C3.444,5 3,5.446 3,5.994L3,8.001C3,8.266 2.894,8.521 2.707,8.708C2.52,8.895 2.266,9 2.001,9L1.999,9C1.734,9 1.48,8.895 1.292,8.708C1.105,8.521 1,8.266 1,8.001L1,4.976Z" style="fill-rule:nonzero;"/>
    <path id="path2" d="M5.983,10.993L10,6L14,11L5.983,10.993ZM7.055,8.234L4.983,10.993L8.998,10.996L9,11L3,11L6,7L7.055,8.234Z" style="fill-rule:nonzero;"/>
</svg>
