<?xml version="1.0" encoding="UTF-8" standalone="no"?>
<!DOCTYPE svg PUBLIC "-//W3C//DTD SVG 1.1//EN" "http://www.w3.org/Graphics/SVG/1.1/DTD/svg11.dtd">
<svg width="18px" height="18px" version="1.1" xmlns="http://www.w3.org/2000/svg" xmlns:xlink="http://www.w3.org/1999/xlink" xml:space="preserve" xmlns:serif="http://www.serif.com/" style="fill-rule:evenodd;clip-rule:evenodd;stroke-linejoin:round;stroke-miterlimit:2;">
    <rect x="0" y="0" width="18" height="18" style="fill-opacity:0;"/>
    <path d="M3,8.991c0,0 2.248,-3.991 6,-3.991c3.752,0 6,3.991 6,3.991c0,0 -2.239,4.009 -6,4.009c-3.761,0 -6,-4.009 -6,-4.009Zm6,-2.991c1.656,0 3,1.344 3,3c0,1.656 -1.344,3 -3,3c-1.656,0 -3,-1.344 -3,-3c0,-1.656 1.344,-3 3,-3Z" style="fill:#46e9cb;"/>
    <g>
        <path d="M9,7.5c0.828,0 1.5,0.672 1.5,1.5c0,0.828 -0.672,1.5 -1.5,1.5c-0.828,0 -1.5,-0.672 -1.5,-1.5c0,-0.828 0.672,-1.5 1.5,-1.5Z" style="fill:#46e9cb;"/>
    </g>
</svg>
