<?xml version="1.0" encoding="UTF-8" standalone="no"?>
<!DOCTYPE svg PUBLIC "-//W3C//DTD SVG 1.1//EN" "http://www.w3.org/Graphics/SVG/1.1/DTD/svg11.dtd">
<svg width="18px" height="18px" version="1.1" xmlns="http://www.w3.org/2000/svg" xmlns:xlink="http://www.w3.org/1999/xlink" xml:space="preserve" xmlns:serif="http://www.serif.com/" style="fill-rule:evenodd;clip-rule:evenodd;stroke-linejoin:round;stroke-miterlimit:2;">
    <rect x="0" y="0" width="18" height="18" style="fill-opacity:0;"/>
    <path d="M9,2.95c3.339,0 6.05,2.711 6.05,6.05c0,3.339 -2.711,6.05 -6.05,6.05c-3.339,0 -6.05,-2.711 -6.05,-6.05c0,-3.339 2.711,-6.05 6.05,-6.05Zm0,1.1c-2.732,0 -4.95,2.218 -4.95,4.95c0,2.732 2.218,4.95 4.95,4.95c2.732,0 4.95,-2.218 4.95,-4.95c0,-2.732 -2.218,-4.95 -4.95,-4.95Zm3,2.95l0,4l-6,0l0,-4l6,0Zm-5.238,0.762l0,2.476l4.476,-0l0,-2.476l-4.476,0Z" style="fill:url(#_Linear1);"/>
    <defs>
        <linearGradient id="_Linear1" x1="0" y1="0" x2="1" y2="0" gradientUnits="userSpaceOnUse" gradientTransform="matrix(12.1,0,0,12.1,2.95,9)"><stop offset="0" style="stop-color:#ff9742;stop-opacity:1"/><stop offset="0.53" style="stop-color:#ff9742;stop-opacity:0.83"/><stop offset="1" style="stop-color:#ff9742;stop-opacity:0.25"/></linearGradient>
    </defs>
</svg>
