<?xml version="1.0" encoding="UTF-8" standalone="no"?>
<!DOCTYPE svg PUBLIC "-//W3C//DTD SVG 1.1//EN" "http://www.w3.org/Graphics/SVG/1.1/DTD/svg11.dtd">
<svg width="100%" height="100%" viewBox="0 0 16 16" version="1.1" xmlns="http://www.w3.org/2000/svg" xmlns:xlink="http://www.w3.org/1999/xlink" xml:space="preserve" xmlns:serif="http://www.serif.com/" style="fill-rule:evenodd;clip-rule:evenodd;stroke-linejoin:round;stroke-miterlimit:2;">
    <rect id="bg" x="0.001" y="-0.04" width="16" height="16" style="fill:#878787;fill-opacity:0;"/>
    <g transform="matrix(1,0,0,1,-171,-115)">
        <g transform="matrix(1,0,0,1,61.0005,-115)">
            <path d="M124.999,234L122,234L122,231.023L124.999,234Z" style="fill:#9f9f9f;"/>
        </g>
        <g transform="matrix(1,0,0,1,61,-115)">
            <path d="M121,230C121.191,230 121.579,230.015 121.612,230.002C122.094,229.998 122.418,230.029 122.704,230.313L125.704,233.29C126.046,233.665 125.997,233.954 125.998,234.363C125.998,234.474 126,234.818 126,235L126,244C126,245.104 125.104,246 124,246L112,246C110.896,246 110,245.104 110,244L110,232C110,230.896 110.896,230 112,230L121,230ZM121,231L112,231C111.448,231 111,231.448 111,232L111,244C111,244.552 111.448,245 112,245L124,245C124.552,245 125,244.552 125,244L125,235L121,235L121,231ZM124.999,234L122,231.023L122,234L124.999,234Z" style="fill:#1b1b1b;fill-opacity:0.75;"/>
        </g>
        <g transform="matrix(1,0,0,1,61,-115)">
            <path d="M121,231L121,235L125,235L125,244C125,244.552 124.552,245 124,245L112,245C111.448,245 111,244.552 111,244L111,232C111,231.448 111.448,231 112,231L121,231Z" style="fill:#d6d6d6;"/>
        </g>
        <g transform="matrix(1,0,0,1,171.016,116.017)">
            <path d="M9.501,4.235L9.501,5.685L4.501,5.685L4.501,4.235L9.501,4.235ZM11.501,7.235L11.501,8.685L4.501,8.685L4.501,7.235L11.501,7.235ZM10.501,10.235L10.501,11.685L4.501,11.685L4.501,10.235L10.501,10.235Z" style="fill:#181818;"/>
        </g>
    </g>
</svg>
