<?xml version="1.0" encoding="UTF-8" standalone="no"?>
<!DOCTYPE svg PUBLIC "-//W3C//DTD SVG 1.1//EN" "http://www.w3.org/Graphics/SVG/1.1/DTD/svg11.dtd">
<svg width="100%" height="100%" viewBox="0 0 16 16" version="1.1" xmlns="http://www.w3.org/2000/svg" xmlns:xlink="http://www.w3.org/1999/xlink" xml:space="preserve" xmlns:serif="http://www.serif.com/" style="fill-rule:evenodd;clip-rule:evenodd;stroke-linejoin:round;stroke-miterlimit:2;">
    <g transform="matrix(0.110345,0,0,0.121212,-16.2207,-18.909)">
        <rect x="147" y="156" width="145" height="132" style="fill:#878787;fill-opacity:0;"/>
    </g>
    <g transform="matrix(1,0,0,1,-151,-115)">
        <g transform="matrix(1,0,0,1,41.0005,-115)">
            <path d="M124.999,234L122,234L122,231.023L124.999,234Z" style="fill:#abdffb;"/>
        </g>
        <g transform="matrix(1,0,0,1,41,-115)">
            <path d="M121,230C121.191,230 121.579,230.015 121.612,230.002C122.094,229.998 122.418,230.029 122.704,230.313L125.704,233.29C126.046,233.665 125.997,233.954 125.998,234.363C125.998,234.474 126,234.818 126,235L126,244C126,245.104 125.104,246 124,246L112,246C110.896,246 110,245.104 110,244L110,232C110,230.896 110.896,230 112,230L121,230ZM121,231L112,231C111.448,231 111,231.448 111,232L111,244C111,244.552 111.448,245 112,245L124,245C124.552,245 125,244.552 125,244L125,235L121,235L121,231ZM124.999,234L122,231.023L122,234L124.999,234Z" style="fill:#141414;fill-opacity:0.75;"/>
        </g>
        <g transform="matrix(1,0,0,1,41,-115)">
            <path d="M121,231L121,235L125,235L125,244C125,244.552 124.552,245 124,245L112,245C111.448,245 111,244.552 111,244L111,232C111,231.448 111.448,231 112,231L121,231Z" style="fill:#7ac1e8;"/>
        </g>
        <g transform="matrix(1,0,0,0.8,0.99996,-51.4001)">
            <ellipse cx="156" cy="216.75" rx="1" ry="1.25" style="fill:#161616;"/>
        </g>
        <g transform="matrix(1.25,0,0,1.66667,-39.5,-243.667)">
            <path d="M160,220L162.8,223L157.2,223L160,220Z" style="fill:#161616;"/>
        </g>
        <g transform="matrix(1.25,0,0,1,-43.5,-95.0001)">
            <path d="M159.6,220L161.2,223L158,223L159.6,220Z" style="fill:#161616;"/>
        </g>
    </g>
</svg>
